<?xml version="1.0" standalone="no"?>
<!DOCTYPE svg PUBLIC "-//W3C//DTD SVG 1.1//EN" "http://www.w3.org/Graphics/SVG/1.1/DTD/svg11.dtd">
<svg xmlns="http://www.w3.org/2000/svg"><metadata>This SVG WebFont was generated by YouWorkForThem.
Copyright (c) 2012 by Juri Zaech. All rights reserved.</metadata><defs><font horiz-adv-x="1208" id="ywftsvg"><font-face ascent="1536" bbox="-51 -410 2818 1997" cap-height="1485" descent="-512" font-family="" font-stretch="normal" font-weight="400" panose-1="2 0 5 5 0 0 0 2 0 4" underline-position="0" underline-thickness="0" unicode-range="U+0020-2212" units-per-em="2048" x-height="1485"/><missing-glyph horiz-adv-x="1431"/><glyph glyph-name=".notdef" horiz-adv-x="1431"/><glyph glyph-name="glyph1" horiz-adv-x="0"/><glyph glyph-name="glyph2" horiz-adv-x="681"/><glyph glyph-name="space" horiz-adv-x="1126" unicode=" "/><glyph d="M860 1485v-1127h-307v1127h307zM860 256v-307h-307v307h307z" glyph-name="exclam" unicode="!"/><glyph d="M717 1485v-512h-307v512h307zM1178 1485v-512h-308v512h308z" glyph-name="quotedbl" horiz-adv-x="1382" unicode="&quot;"/><glyph d="M1729 819h-193l-51 -205h194l-75 -307h-193l-86 -358h-315l86 358h-138l-86 -358h-315l86 358h-192l73 307h193l49 205h-193l74 307h195l86 359h315l-86 -359h135l88 359h316l-86 -359h192zM1169 614l50 205h-136l-49 -205h135z" glyph-name="numbersign" horiz-adv-x="2048" unicode="#"/><glyph d="M1372 410q0 -147 -86 -266t-221 -169v-180h-307v180q-111 39 -190 127t-105 203l295 105q0 -63 45 -108.5t108.5 -45.5t108.5 45t45 108.5t-45 108.5t-109 45q-190 0 -325 135.5t-135 325.5q0 150 85 267.5t222 166.5v180h307v-180q111 -39 189.5 -127t105.5 -203 l-295 -104q0 63 -45 108.5t-108.5 45.5t-108.5 -45.5t-45 -108.5t45 -108.5t108 -45.5q190 0 325.5 -135t135.5 -325z" glyph-name="dollar" horiz-adv-x="1597" unicode="$"/><glyph d="M860 1178q0 43 -29.5 72.5t-72.5 29.5t-73 -29.5t-30 -72.5t30 -73t73 -30t72.5 30t29.5 73zM758 1485q127 0 217 -90t90 -217t-90 -217.5t-217 -90.5t-217 90.5t-90 217.5t90 217t217 90zM1804 1380l-1122 -1480l-203 155l1123 1481zM1661 256q0 43 -30.5 72.5 t-72.5 29.5t-72 -29.5t-30 -72.5t30 -72.5t72 -29.5t72.5 29.5t30.5 72.5zM1559 563q127 0 217 -90t90 -217t-90 -217t-217 -90t-217.5 90t-90.5 217t90.5 217t217.5 90z" glyph-name="percent" horiz-adv-x="2111" unicode="%"/><glyph d="M975 1126.5q0 20.5 -14 35.5t-36 15.5t-37 -15.5t-15.5 -36t16.5 -36l35 -35l37 35q14 16 14 36.5zM931.5 256q63.5 0 108.5 45l101 100l-217 217l-101 -100q-45 -45 -45 -108.5t45 -108.5t108.5 -45zM1282 1126.5q0 -147.5 -104 -254.5l-37 -34l217 -220l186 187 l217 -217l-184 -187l184 -184l-217 -217l-186 184l-101 -100q-135 -135 -325.5 -135t-325.5 135t-135 325.5t135 325.5l101 103l-35 34q-106 106 -107 254t105 253t255 105t253 -105t104 -252.5z" glyph-name="ampersand" horiz-adv-x="1966" unicode="&amp;"/><glyph d="M717 1485v-512h-307v512h307z" glyph-name="quotesingle" horiz-adv-x="921" unicode="'"/><glyph d="M717 716.5q0 -370.5 201 -683.5l-267 -154q-242 383 -241.5 837.5t241.5 837.5l267 -153q-201 -314 -201 -684.5z" glyph-name="parenleft" horiz-adv-x="1122" unicode="("/><glyph d="M608 717q0 373 -198 684l266 153q240 -385 239.5 -837.5t-239.5 -837.5l-266 154q198 311 198 684z" glyph-name="parenright" horiz-adv-x="1120" unicode=")"/><glyph d="M1284 -51h-307v502l-434 -252l-154 266l434 252l-434 250l154 266l434 -250v502h307v-502l434 250l154 -266l-434 -250l434 -252l-154 -266l-434 252v-502z" glyph-name="asterisk" horiz-adv-x="2056" unicode="*"/><glyph d="M1536 870v-307h-410v-409h-307v409h-409v307h409v410h307v-410h410z" glyph-name="plus" horiz-adv-x="1740" unicode="+"/><glyph d="M410 -256v512h307v-268l-123 -244h-184z" glyph-name="comma" horiz-adv-x="921" unicode=","/><glyph d="M1065 870v-307h-717v307h717z" glyph-name="hyphen" unicode="-"/><glyph d="M717 256v-307h-307v307h307z" glyph-name="period" horiz-adv-x="921" unicode="."/><glyph d="M266 35l858 1515l269 -151l-861 -1516z" glyph-name="slash" horiz-adv-x="1454" unicode="/"/><glyph d="M1884 716.5q0 -317.5 -225 -542.5t-542.5 -225t-543 225t-225.5 542.5t225.5 543t543 225.5t542.5 -225.5t225 -543zM1116.5 1178q-190.5 0 -326 -135.5t-135.5 -326t135.5 -325.5t326 -135t325.5 135t135 325.5t-135 326t-325.5 135.5z" glyph-name="zero" horiz-adv-x="2027" unicode="0"/><glyph d="M860 1485v-1536h-307v1536h307z" glyph-name="one" unicode="1"/><glyph d="M1452 986q0 -198 -119 -345l-325 -385h444v-307h-1104l750 891q47 53 47 135t-59.5 142.5t-144.5 60.5t-145.5 -60.5t-60.5 -144.5q0 -51 23 -92l22 -47l-274 -138l-23 47q-55 106 -55 230q0 211 150.5 361.5t361.5 150.5t361.5 -150.5t150.5 -348.5z" glyph-name="two" horiz-adv-x="1718" unicode="2"/><glyph d="M1409 461q0 -211 -149.5 -361.5t-362.5 -150.5q-154 0 -278.5 82t-188.5 217l270 155q18 -63 72.5 -105t131.5 -42t137.5 60.5t60.5 144.5t-60.5 144.5t-144.5 60.5h-334l340 512h-387v307h959l-369 -557q135 -61 219 -187.5t84 -279.5z" glyph-name="three" horiz-adv-x="1699" unicode="3"/><glyph d="M1075 614v615h307v-615h205v-307h-205v-358h-307v358h-624l280 1204l299 -69l-192 -828h237z" glyph-name="four" horiz-adv-x="1832" unicode="4"/><glyph d="M938 973q213 0 362.5 -150.5t149.5 -361.5t-149.5 -361.5t-362.5 -150.5q-154 0 -280 83t-187 218l268 156q18 -66 73.5 -108t132.5 -42t137.5 60.5t60.5 144.5t-60.5 144.5t-132.5 60.5q-143 0 -196 -117l-271 108l99 828h766v-307h-494l-27 -217q55 12 111 12z" glyph-name="five" horiz-adv-x="1716" unicode="5"/><glyph d="M737 465q0 -84 60.5 -144.5t144.5 -60.5t144.5 60.5t60.5 144.5t-60.5 144.5t-144.5 60.5t-144.5 -60.5t-60.5 -144.5zM1454 462q0 -208 -149.5 -358.5t-362.5 -150.5t-362.5 150.5t-149.5 361.5q0 125 57 235l426 861l275 -136l-221 -448q203 -10 345 -158.5t142 -356.5 z" glyph-name="six" horiz-adv-x="1679" unicode="6"/><glyph d="M451 1178v307h1101l-356 -819h98v-308h-233l-193 -442l-280 123l139 319h-98v308h231l223 512h-632z" glyph-name="seven" horiz-adv-x="1736" unicode="7"/><glyph d="M1434 471q0 -221 -149.5 -371.5t-362.5 -150.5t-362.5 150.5t-149.5 371.5t174 373q-72 104 -72 231q0 170 120 290t289 120t289.5 -120t120.5 -290q1 -127 -71 -231q174 -152 174 -373zM922 973q43 0 72.5 29.5t29.5 72.5t-29.5 73t-72.5 30t-73 -30t-30 -73t30 -72.5 t73 -29.5zM922 666q-84 0 -144.5 -60.5t-60.5 -144.5t60.5 -144.5t144.5 -60.5t144 60.5t60 144.5t-60 144.5t-144 60.5z" glyph-name="eight" horiz-adv-x="1638" unicode="8"/><glyph d="M1106 973q0 84 -60.5 144.5t-144.5 60.5t-144.5 -60.5t-60.5 -144.5t60.5 -144.5t144.5 -60.5t144.5 60.5t60.5 144.5zM389 976q0 208 149.5 358.5t362.5 150.5t362.5 -150.5t149.5 -361.5q0 -125 -57 -236l-426 -860l-275 135l222 449q-205 10 -346.5 158.5 t-141.5 356.5z" glyph-name="nine" horiz-adv-x="1597" unicode="9"/><glyph d="M717 256v-307h-307v307h307zM717 1075v-307h-307v307h307z" glyph-name="colon" horiz-adv-x="921" unicode=":"/><glyph d="M410 -256v512h307v-268l-123 -244h-184zM717 1075v-307h-307v307h307z" glyph-name="semicolon" horiz-adv-x="921" unicode=";"/><glyph d="M451 852l809 397l137 -276l-523 -256l523 -256l-137 -277l-809 398v270z" glyph-name="less" horiz-adv-x="1683" unicode="&lt;"/><glyph d="M1536 1075v-307h-1126v307h1126zM1536 666v-308h-1126v308h1126z" glyph-name="equal" horiz-adv-x="1740" unicode="="/><glyph d="M629 1249l809 -397v-270l-809 -398l-135 277l520 256l-520 256z" glyph-name="greater" horiz-adv-x="1683" unicode=">"/><glyph d="M655 -51v307h308v-307h-308zM809 1485q203 0 345 -142.5t142 -345.5q0 -160 -93 -285.5t-240 -174.5v-179h-308v461h154q76 0 128 52.5t52 126.5t-52 127t-124 53t-122 -45.5t-58 -110.5l-285 127q49 147 175 241.5t286 94.5z" glyph-name="question" horiz-adv-x="1439" unicode="?"/><glyph d="M1925 717q0 -190 -135 -325.5t-326 -135.5q-33 0 -47 2l99 -221q-170 -88 -359 -88q-317 0 -542.5 225t-225.5 542.5t225.5 543t543 225.5t542.5 -225.5t225 -542.5zM1106 716.5q0 -20.5 14.5 -35.5t37 -15t36.5 15t14 35.5t-14 36t-36.5 15.5t-37 -15.5t-14.5 -36z M1157 256q78 0 154 27q-74 25 -137 75h-17q-150 0 -254 104.5t-104 254t104.5 254t254 104.5t254 -104.5t104.5 -253.5q0 -80 -35 -154q59 8 98 51t39 103q0 190 -135 325.5t-325.5 135.5t-326 -135.5t-135.5 -326t135.5 -325.5t325.5 -135z" glyph-name="at" horiz-adv-x="2109" unicode="@"/><glyph d="M1749 -51l-141 256h-791l-139 -256h-350l884 1620l887 -1620h-350zM985 512h455l-228 418z" glyph-name="A" horiz-adv-x="2222" unicode="A"/><glyph d="M1884 410q0 -190 -135 -325.5t-326 -135.5h-870v1536h768q190 0 325.5 -135.5t135.5 -325.5q0 -137 -74 -252q176 -139 176 -362zM860 870h461q63 0 108.5 45.5t45.5 108.5t-45.5 108.5t-108.5 45.5h-461v-308zM858 256h565q63 0 108.5 45t45.5 108.5t-45 108.5t-109 45 h-565v-307z" glyph-name="B" horiz-adv-x="2109" unicode="B"/><glyph d="M369 716.5q0 317.5 225 543t543 225.5q184 0 344.5 -82t267.5 -223l31 -41l-244 -187l-31 41q-137 184 -368 185q-190 0 -325.5 -135.5t-135.5 -326t135 -325.5t326 -135q231 0 368 184l31 41l244 -186l-31 -41q-106 -141 -267 -223t-345 -82q-317 0 -542.5 225 t-225.5 542.5z" glyph-name="C" horiz-adv-x="1923" unicode="C"/><glyph d="M1116 -51h-563v1536h563q317 0 542.5 -225.5t225.5 -543t-225.5 -542.5t-542.5 -225zM860 256h256q190 0 325.5 135t135.5 325.5t-135 326t-326 135.5h-256v-922z" glyph-name="D" horiz-adv-x="2048" unicode="D"/><glyph d="M553 -51v1536h1126v-307h-819v-461h615v-307h-615v-154h819v-307h-1126z" glyph-name="E" horiz-adv-x="2007" unicode="E"/><glyph d="M553 -51v1536h1126v-307h-819v-461h615v-307h-615v-461h-307z" glyph-name="F" horiz-adv-x="1904" unicode="F"/><glyph d="M1772 768v-512q-106 -143 -267.5 -225t-347.5 -82q-317 0 -542.5 225t-225.5 542.5t225.5 543t542.5 225.5q199 0 368 -93.5t273 -252.5l-244 -189q-61 104 -166.5 166t-230.5 62q-190 0 -325.5 -135.5t-135.5 -326t135.5 -325.5t317.5 -135t315 117v88h-358v307h666z " glyph-name="G" horiz-adv-x="2025" unicode="G"/><glyph d="M1577 1485h307v-1536h-307v461h-717v-461h-307v1536h307v-768h717v768z" glyph-name="H" horiz-adv-x="2232" unicode="H"/><glyph d="M860 1485v-1536h-307v1536h307z" glyph-name="I" unicode="I"/><glyph d="M836 256q116 0 191 75t75 181v973h307v-973q0 -233 -165 -398t-398 -165q-135 0 -252 58.5t-195 160.5l-30 41l243 188l31 -41q77 -100 193 -100z" glyph-name="J" horiz-adv-x="1736" unicode="J"/><glyph d="M553 -51v1536h307v-582l535 582h417l-565 -617l576 -919h-363l-428 686l-172 -186v-500h-307z" glyph-name="K" horiz-adv-x="2037" unicode="K"/><glyph d="M553 -51v1536h307v-1229h819v-307h-1126z" glyph-name="L" horiz-adv-x="1884" unicode="L"/><glyph d="M514 -51l119 1536h78l555 -600l553 600h79l117 -1536h-307l-68 889l-374 -406l-375 406l-70 -889h-307z" glyph-name="M" horiz-adv-x="2322" unicode="M"/><glyph d="M553 -51v1536h82l942 -897v897h307v-1536h-84l-940 897v-897h-307z" glyph-name="N" horiz-adv-x="2232" unicode="N"/><glyph d="M1884 716.5q0 -317.5 -225 -542.5t-542.5 -225t-543 225t-225.5 542.5t225.5 543t543 225.5t542.5 -225.5t225 -543zM1116.5 1178q-190.5 0 -326 -135.5t-135.5 -326t135.5 -325.5t326 -135t325.5 135t135 325.5t-135 326t-325.5 135.5z" glyph-name="O" horiz-adv-x="2027" unicode="O"/><glyph d="M860 666h256q106 0 181 74.5t75 181t-74.5 181.5t-181.5 75h-256v-512zM1116 358h-256v-409h-307v1536h563q233 0 398 -165t165 -398.5t-165 -398.5t-398 -165z" glyph-name="P" horiz-adv-x="1843" unicode="P"/><glyph d="M1905 722q0 -312 -213 -536l155 -237h-366l-41 61q-150 -61 -303 -61q-317 0 -542.5 225t-225.5 542.5t225 543t542.5 225.5t543 -225.5t225.5 -537.5zM1137 256q68 0 129 18l-142 215h369l23 -34q82 119 81 262q0 190 -135 325.5t-325.5 135.5t-325.5 -135.5t-135 -326 t135.5 -325.5t325.5 -135z" glyph-name="Q" horiz-adv-x="2129" unicode="Q"/><glyph d="M860 666h256q106 0 181 74.5t75 181t-74.5 181.5t-181.5 75h-256v-512zM860 358v-409h-307v1536h563q233 0 398 -165t165 -398q0 -150 -71.5 -276t-194.5 -204l324 -493h-367l-268 409h-242z" glyph-name="R" horiz-adv-x="1972" unicode="R"/><glyph d="M911 870q190 0 325.5 -135t135.5 -325.5t-135 -325.5t-313 -135t-302 100.5t-159 255.5l295 105q0 -63 45 -108.5t108.5 -45.5t108.5 45t45 108.5t-45 108.5t-109 45q-190 0 -325 135.5t-135 325.5t135 325.5t312 135.5t302 -100.5t160 -256.5l-295 -104q0 63 -45 108.5 t-108.5 45.5t-108.5 -45.5t-45 -108.5t45 -108.5t108 -45.5z" glyph-name="S" horiz-adv-x="1597" unicode="S"/><glyph d="M410 1178v307h1331v-307h-512v-1229h-307v1229h-512z" glyph-name="T" horiz-adv-x="1945" unicode="T"/><glyph d="M1843 1485v-871q0 -276 -195.5 -470.5t-470.5 -194.5t-470 194.5t-195 470.5v871h307v-871q0 -150 104.5 -254t254 -104t254 104.5t104.5 253.5v871h307z" glyph-name="U" horiz-adv-x="2150" unicode="U"/><glyph d="M1997 1485l-840 -1536h-92l-840 1536h350l537 -981l535 981h350z" glyph-name="V" horiz-adv-x="2017" unicode="V"/><glyph d="M1264 717l-295 -768h-92l-590 1536h329l306 -799l307 799h69l306 -799l307 799h327l-587 -1536h-92z" glyph-name="W" horiz-adv-x="2320" unicode="W"/><glyph d="M883 737l-469 748h362l289 -459l287 459h362l-469 -748l496 -788h-363l-313 500l-313 -500h-363z" glyph-name="X" horiz-adv-x="1925" unicode="X"/><glyph d="M1169 -51h-307v551l-616 985h362l408 -651l409 651h363l-619 -985v-551z" glyph-name="Y" horiz-adv-x="1828" unicode="Y"/><glyph d="M455 1178v307h1130l-676 -1229h641v-307h-1161l676 1229h-610z" glyph-name="Z" horiz-adv-x="1769" unicode="Z"/><glyph d="M973 1382h-154v-1331h154v-307h-461v1946h461v-308z" glyph-name="bracketleft" horiz-adv-x="1218" unicode="["/><glyph d="M532 1550l861 -1515l-269 -152l-858 1516z" glyph-name="backslash" horiz-adv-x="1454" unicode="\"/><glyph d="M604 1382h-153v308h460v-1946h-460v307h153v1331z" glyph-name="bracketright" horiz-adv-x="1218" unicode="]"/><glyph d="M1057 750l-62 -197l-262 82l-264 -82l-59 197l323 98z" glyph-name="asciicircum" horiz-adv-x="1261" unicode="^"/><glyph d="M1485 -102v-308h-1536v308h1536z" glyph-name="underscore" horiz-adv-x="1433" unicode="_"/><glyph d="M1057 1749l-62 -197l-585 181l59 196z" glyph-name="grave" horiz-adv-x="1261" unicode="`"/><glyph d="M1749 -51l-141 256h-791l-139 -256h-350l884 1620l887 -1620h-350zM985 512h455l-228 418z" glyph-name="a" horiz-adv-x="2222" unicode="a"/><glyph d="M1884 410q0 -190 -135 -325.5t-326 -135.5h-870v1536h768q190 0 325.5 -135.5t135.5 -325.5q0 -137 -74 -252q176 -139 176 -362zM860 870h461q63 0 108.5 45.5t45.5 108.5t-45.5 108.5t-108.5 45.5h-461v-308zM858 256h565q63 0 108.5 45t45.5 108.5t-45 108.5t-109 45 h-565v-307z" glyph-name="b" horiz-adv-x="2109" unicode="b"/><glyph d="M369 716.5q0 317.5 225 543t543 225.5q184 0 344.5 -82t267.5 -223l31 -41l-244 -187l-31 41q-137 184 -368 185q-190 0 -325.5 -135.5t-135.5 -326t135 -325.5t326 -135q231 0 368 184l31 41l244 -186l-31 -41q-106 -141 -267 -223t-345 -82q-317 0 -542.5 225 t-225.5 542.5z" glyph-name="c" horiz-adv-x="1923" unicode="c"/><glyph d="M1116 -51h-563v1536h563q317 0 542.5 -225.5t225.5 -543t-225.5 -542.5t-542.5 -225zM860 256h256q190 0 325.5 135t135.5 325.5t-135 326t-326 135.5h-256v-922z" glyph-name="d" horiz-adv-x="2048" unicode="d"/><glyph d="M553 -51v1536h1126v-307h-819v-461h615v-307h-615v-154h819v-307h-1126z" glyph-name="e" horiz-adv-x="2007" unicode="e"/><glyph d="M553 -51v1536h1126v-307h-819v-461h615v-307h-615v-461h-307z" glyph-name="f" horiz-adv-x="1904" unicode="f"/><glyph d="M1772 768v-512q-106 -143 -267.5 -225t-347.5 -82q-317 0 -542.5 225t-225.5 542.5t225.5 543t542.5 225.5q199 0 368 -93.5t273 -252.5l-244 -189q-61 104 -166.5 166t-230.5 62q-190 0 -325.5 -135.5t-135.5 -326t135.5 -325.5t317.5 -135t315 117v88h-358v307h666z " glyph-name="g" horiz-adv-x="2025" unicode="g"/><glyph d="M1577 1485h307v-1536h-307v461h-717v-461h-307v1536h307v-768h717v768z" glyph-name="h" horiz-adv-x="2232" unicode="h"/><glyph d="M860 1485v-1536h-307v1536h307z" glyph-name="i" unicode="i"/><glyph d="M836 256q116 0 191 75t75 181v973h307v-973q0 -233 -165 -398t-398 -165q-135 0 -252 58.5t-195 160.5l-30 41l243 188l31 -41q77 -100 193 -100z" glyph-name="j" horiz-adv-x="1736" unicode="j"/><glyph d="M553 -51v1536h307v-582l535 582h417l-565 -617l576 -919h-363l-428 686l-172 -186v-500h-307z" glyph-name="k" horiz-adv-x="2037" unicode="k"/><glyph d="M553 -51v1536h307v-1229h819v-307h-1126z" glyph-name="l" horiz-adv-x="1884" unicode="l"/><glyph d="M514 -51l119 1536h78l555 -600l553 600h79l117 -1536h-307l-68 889l-374 -406l-375 406l-70 -889h-307z" glyph-name="m" horiz-adv-x="2322" unicode="m"/><glyph d="M553 -51v1536h82l942 -897v897h307v-1536h-84l-940 897v-897h-307z" glyph-name="n" horiz-adv-x="2232" unicode="n"/><glyph d="M1884 716.5q0 -317.5 -225 -542.5t-542.5 -225t-543 225t-225.5 542.5t225.5 543t543 225.5t542.5 -225.5t225 -543zM1116.5 1178q-190.5 0 -326 -135.5t-135.5 -326t135.5 -325.5t326 -135t325.5 135t135 325.5t-135 326t-325.5 135.5z" glyph-name="o" horiz-adv-x="2027" unicode="o"/><glyph d="M860 666h256q106 0 181 74.5t75 181t-74.5 181.5t-181.5 75h-256v-512zM1116 358h-256v-409h-307v1536h563q233 0 398 -165t165 -398.5t-165 -398.5t-398 -165z" glyph-name="p" horiz-adv-x="1843" unicode="p"/><glyph d="M1905 722q0 -312 -213 -536l155 -237h-366l-41 61q-150 -61 -303 -61q-317 0 -542.5 225t-225.5 542.5t225 543t542.5 225.5t543 -225.5t225.5 -537.5zM1137 256q68 0 129 18l-142 215h369l23 -34q82 119 81 262q0 190 -135 325.5t-325.5 135.5t-325.5 -135.5t-135 -326 t135.5 -325.5t325.5 -135z" glyph-name="q" horiz-adv-x="2129" unicode="q"/><glyph d="M860 666h256q106 0 181 74.5t75 181t-74.5 181.5t-181.5 75h-256v-512zM860 358v-409h-307v1536h563q233 0 398 -165t165 -398q0 -150 -71.5 -276t-194.5 -204l324 -493h-367l-268 409h-242z" glyph-name="r" horiz-adv-x="1972" unicode="r"/><glyph d="M911 870q190 0 325.5 -135t135.5 -325.5t-135 -325.5t-313 -135t-302 100.5t-159 255.5l295 105q0 -63 45 -108.5t108.5 -45.5t108.5 45t45 108.5t-45 108.5t-109 45q-190 0 -325 135.5t-135 325.5t135 325.5t312 135.5t302 -100.5t160 -256.5l-295 -104q0 63 -45 108.5 t-108.5 45.5t-108.5 -45.5t-45 -108.5t45 -108.5t108 -45.5z" glyph-name="s" horiz-adv-x="1597" unicode="s"/><glyph d="M410 1178v307h1331v-307h-512v-1229h-307v1229h-512z" glyph-name="t" horiz-adv-x="1945" unicode="t"/><glyph d="M1843 1485v-871q0 -276 -195.5 -470.5t-470.5 -194.5t-470 194.5t-195 470.5v871h307v-871q0 -150 104.5 -254t254 -104t254 104.5t104.5 253.5v871h307z" glyph-name="u" horiz-adv-x="2150" unicode="u"/><glyph d="M1997 1485l-840 -1536h-92l-840 1536h350l537 -981l535 981h350z" glyph-name="v" horiz-adv-x="2017" unicode="v"/><glyph d="M1264 717l-295 -768h-92l-590 1536h329l306 -799l307 799h69l306 -799l307 799h327l-587 -1536h-92z" glyph-name="w" horiz-adv-x="2320" unicode="w"/><glyph d="M883 737l-469 748h362l289 -459l287 459h362l-469 -748l496 -788h-363l-313 500l-313 -500h-363z" glyph-name="x" horiz-adv-x="1925" unicode="x"/><glyph d="M1169 -51h-307v551l-616 985h362l408 -651l409 651h363l-619 -985v-551z" glyph-name="y" horiz-adv-x="1828" unicode="y"/><glyph d="M455 1178v307h1130l-676 -1229h641v-307h-1161l676 1229h-610z" glyph-name="z" horiz-adv-x="1769" unicode="z"/><glyph d="M612 872v357q0 154 91.5 275.5t234.5 164.5l49 14l90 -292l-49 -15q-47 -16 -77.5 -56t-30.5 -91v-357q0 -84 -27 -155q27 -72 27 -156v-356q0 -51 30.5 -91t77.5 -57l49 -14l-90 -293l-49 14q-143 43 -234.5 165t-91.5 276v356q0 70 -53 117l-47 39l47 39q53 47 53 116z " glyph-name="braceleft" horiz-adv-x="1323" unicode="{"/><glyph d="M860 1690v-1946h-307v1946h307z" glyph-name="bar" unicode="|"/><glyph d="M913 205q0 -154 -91 -276t-234 -165l-49 -14l-90 293l49 14q49 16 78.5 56.5t29.5 91.5v356q0 76 27 156q-27 80 -27 155v357q0 51 -29.5 91t-78.5 56l-49 15l90 292l49 -14q143 -43 234 -165t91 -275v-357q1 -69 54 -116l47 -39l-47 -39q-53 -47 -54 -117v-356z" glyph-name="braceright" horiz-adv-x="1320" unicode="}"/><glyph d="M1020 600q-143 -43 -272 27q-55 31 -117 10q-29 -8 -53 -27l-37 -32l-131 157l39 33q51 43 120 66q143 43 275 -27q55 -31 117 -10q27 6 51 26l39 33l131 -160l-41 -32q-55 -46 -121 -64z" glyph-name="asciitilde" horiz-adv-x="1386" unicode="~"/><glyph d="M553 -51v1126h307v-1126h-307zM553 1178v307h307v-307h-307z" glyph-name="exclamdown" unicode="¡"/><glyph d="M1126 -205h-307v174q-178 51 -293.5 202t-115.5 341t115.5 341t293.5 202v174h307v-174q207 -59 322 -242l-242 -186l-30 41q-78 100 -194 100t-190.5 -75t-74.5 -181t74.5 -181t190.5 -75t194 100l30 41l242 -186q-115 -182 -322 -242v-174z" glyph-name="cent" horiz-adv-x="1611" unicode="¢"/><glyph d="M1618 256v-307h-1126v307h153q23 0 37 15.5t14 35.5v51h-204v308h204v409q0 170 120 290t290 120q131 0 236.5 -76t148.5 -197l18 -49l-290 -102l-17 49q-25 68 -96 68q-43 0 -72.5 -30t-29.5 -73v-409h204v-308h-204v-51q-1 -18 -5 -51h619z" glyph-name="sterling" horiz-adv-x="1863" unicode="£"/><glyph d="M492 716.5q0 104.5 45 198.5l-127 127l217 218l127 -127q199 94 397 0l127 127l217 -218l-127 -127q94 -199 0 -397l127 -127l-217 -217l-127 127q-199 -94 -397 0l-127 -127l-217 217l127 127q-45 94 -45 198.5zM952.5 563q63.5 0 108.5 45t45 108.5t-45 108.5 t-108.5 45t-108.5 -45t-45 -108.5t45 -108.5t108.5 -45z" glyph-name="currency" horiz-adv-x="1699" unicode="¤"/><glyph d="M1630 870v-307h-317l-41 -63v-39h358v-307h-358v-205h-307v205h-359v307h359v39l-39 63h-320v307h127l-385 615h363l407 -651l410 651h362l-385 -615h125z" glyph-name="yen" horiz-adv-x="2033" unicode="¥"/><glyph d="M860 1690v-820h-307v820h307zM860 563v-819h-307v819h307z" glyph-name="brokenbar" unicode="¦"/><glyph d="M1475 717q0 -170 -101 -305q49 -98 49 -207q0 -190 -135 -325.5t-312 -135.5t-302 100.5t-160 255.5l295 105q0 -63 45 -108.5t108.5 -45.5t108.5 45t45 109q0 14 -2 22q-74 -23 -151 -22q-213 0 -362.5 149.5t-149.5 362.5q0 170 100 305q-49 98 -49 207 q0 190 135 325.5t313 135.5t302 -100.5t159 -256.5l-295 -104q0 63 -45 108t-108.5 45t-108.5 -45t-45 -108q0 -16 2 -23q74 23 152 23q213 0 362.5 -149.5t149.5 -362.5zM758 717q0 -84 60.5 -144.5t144.5 -60.5t144 60.5t60 144.5t-60 144.5t-144 60.5t-144.5 -60.5 t-60.5 -144.5z" glyph-name="section" horiz-adv-x="1720" unicode="§"/><glyph d="M717 1740.5q0 -63.5 -46 -108.5t-109.5 -45t-108.5 45t-45 108.5t45 108.5t108.5 45t109.5 -45t46 -108.5zM1331 1740.5q0 -63.5 -46 -108.5t-109.5 -45t-108.5 45t-45 108.5t45 108.5t108.5 45t109.5 -45t46 -108.5z" glyph-name="dieresis" horiz-adv-x="1536" unicode="¨"/><glyph d="M705.5 768q-148.5 0 -253.5 105t-105.5 253t105.5 253t254 105t253 -105t106 -252t-105 -253t-254.5 -106zM1014 1126q0 127 -90 217.5t-217 90.5t-217.5 -90.5t-90.5 -217.5t90.5 -217t217.5 -90t217 90t90 217zM714 999q59 0 101 62l68 -51l-9 -11q-63 -84 -157 -84 t-154.5 61.5t-60.5 147.5t60.5 146.5t155.5 60.5t165 -94l-68 -49l-8 10q-37 49 -93 49t-93 -35.5t-37 -87t35.5 -88.5t94.5 -37z" glyph-name="copyright" unicode="©"/><glyph d="M348 870l381 699l381 -699h-233l-37 68h-222l-36 -68h-234z" glyph-name="ordfeminine" horiz-adv-x="1253" unicode="ª"/><glyph d="M328 717l344 491l252 -176l-219 -315l219 -316l-252 -176zM793 717l344 491l252 -176l-222 -315l222 -316l-252 -176z" glyph-name="guillemotleft" horiz-adv-x="1511" unicode="«"/><glyph d="M430 870h1126v-614h-307v307h-819v307z" glyph-name="logicalnot" horiz-adv-x="1863" unicode="¬"/><glyph d="M1065 1126.5q0 -147.5 -104 -254.5q-106 -104 -254 -104t-254 104q-104 106 -104.5 254t104.5 254q106 104 254 104t254 -104q104 -106 104 -253.5zM1014 1126q0 127 -90 217.5t-217 90.5t-217.5 -90.5t-90.5 -217.5t90.5 -217t217.5 -90t217 90t90 217zM647 1110h70 q29 0 49 20.5t20 49t-20.5 49t-48.5 20.5h-70v-139zM647 1028v-110h-82v413h152q63 0 107 -43.5t44 -117.5t-71 -119l86 -133h-99l-71 110h-66z" glyph-name="registered" unicode="®"/><glyph d="M655 1228.5q0 20.5 -14 36t-36.5 15.5t-37 -15.5t-14.5 -36t14.5 -35.5t37 -15t36.5 15t14 35.5zM604.5 1485q106.5 0 181 -75t74.5 -181.5t-74.5 -181t-181 -74.5t-181.5 74.5t-75 181t75 181.5t181.5 75z" glyph-name="degree" horiz-adv-x="1003" unicode="°"/><glyph d="M1536 1126v-307h-410v-409h-307v409h-409v307h409v410h307v-410h410zM1536 51h-1126v307h1126v-307z" glyph-name="plusminus" horiz-adv-x="1740" unicode="±"/><glyph d="M596 1485q92 0 157.5 -65.5t65.5 -155.5l-2 -15q-4 -74 -51 -129l-37 -45h90v-205h-471v70q104 125 176 211l-96 -49l-31 61q-23 49 -22 101q0 90 64.5 155.5t156.5 65.5zM614 1264q0 16 -17 16t-17 -16q0 -7 2 -9l10 -24l18 20q4 4 4 13z" glyph-name="uni00B2" horiz-adv-x="962" unicode="²"/><glyph d="M391 1485h422v-68l-102 -153q80 -68 80 -165t-64.5 -163t-144.5 -66t-134.5 36t-80.5 93l-19 43l115 68h-101l113 170h-84v205zM569 1110h-26l10 -25l8 -8q15 -8 24 7q9 14 -1 20t-15 6z" glyph-name="uni00B3" horiz-adv-x="956" unicode="³"/><glyph d="M469 1552l-59 197l585 180l62 -196z" glyph-name="acute" horiz-adv-x="1261" unicode="´"/><glyph d="M1884 -51h-307v1022l-358 -522l-359 522v-1022h-307v1536h326l340 -494l337 494h328v-1536z" glyph-name="uni00B5" horiz-adv-x="2232" unicode="µ"/><glyph d="M1884 -51h-307v1022l-358 -522l-359 522v-1022h-307v1536h326l340 -494l337 494h328v-1536z" glyph-name="uni00B5" horiz-adv-x="2232" unicode="μ"/><glyph d="M1495 1485v-307h-102v-1229h-615v616q-174 20 -291.5 150.5t-117.5 314.5t135 319.5t325 135.5h666z" glyph-name="paragraph" horiz-adv-x="1761" unicode="¶"/><glyph d="M655 716.5q0 -63.5 -45 -108.5t-108.5 -45t-108.5 45t-45 108.5t45 108.5t108.5 45t108.5 -45t45 -108.5z" glyph-name="periodcentered" horiz-adv-x="798" unicode="·"/><glyph d="M461 51h205v-307h-256v154h51v153z" glyph-name="cedilla" horiz-adv-x="870" unicode="¸"/><glyph d="M553 1485v-615h-205v615h205z" glyph-name="uni00B9" horiz-adv-x="696" unicode="¹"/><glyph d="M819 1178q0 43 -30.5 72.5t-72.5 29.5t-72 -29.5t-30 -72.5t30 -73t72 -30t72.5 30t30.5 73zM717 1485q127 0 217 -90t90 -217t-90 -217.5t-217 -90.5t-217 90.5t-90 217.5t90 217t217 90z" glyph-name="ordmasculine" horiz-adv-x="1228" unicode="º"/><glyph d="M1047 1208l342 -491l-342 -492l-252 176l219 316l-219 315zM582 1208l342 -491l-342 -492l-252 176l219 316l-219 315z" glyph-name="guillemotright" horiz-adv-x="1511" unicode="»"/><glyph d="M735 1485v-615h-205v615h205zM1776 1380l-1121 -1480l-204 155l1122 1481zM1747 477v-205h70v-204h-70v-119h-205v119h-221l121 514l198 -45l-12 -60h119z" glyph-name="onequarter" horiz-adv-x="2062" unicode="¼"/><glyph d="M735 1485v-615h-205v615h205zM1776 1380l-1123 -1480l-202 155l1120 1481zM1368 342q0 90 65.5 155.5t156.5 65.5t156.5 -65.5t65.5 -155.5v-14q-6 -76 -53 -129l-37 -45h90v-205h-471v69q105 125 177 211l-97 -49l-28 62q-25 47 -25 100zM1608 342q0 16 -18 16t-17 -16 v-6l2 -2l12 -25l17 21q4 4 4 12z" glyph-name="onehalf" horiz-adv-x="2058" unicode="½"/><glyph d="M496 1485h422v-68l-103 -153q80 -68 80 -165t-64.5 -163t-143.5 -66t-134 36t-82 93l-18 43l114 68h-100l113 170h-84v205zM674 1110h-27l10 -25l9 -8q14 -8 22 8.5t-8 22.5q-2 2 -6 2zM1808 1380l-1122 -1480l-205 155l1123 1481zM1780 477v-205h67v-204h-67v-119h-205 v119h-221l119 514l200 -45l-14 -60h121z" glyph-name="threequarters" horiz-adv-x="2093" unicode="¾"/><glyph d="M987 1485v-307h-307v307h307zM834 -51q-201 0 -343.5 142t-142.5 343q0 160 92 287t240 176v178h307v-461h-153q-74 0 -126.5 -52t-52.5 -127t52.5 -127t123.5 -52t120.5 44t60.5 112l284 -127q-49 -147 -175.5 -241.5t-286.5 -94.5z" glyph-name="questiondown" horiz-adv-x="1439" unicode="¿"/><glyph d="M1534 1749l-61 -197l-588 181l61 196zM1749 -51l-139 256h-793l-139 -256h-350l886 1620l885 -1620h-350zM985 512h457l-228 418z" glyph-name="Agrave" horiz-adv-x="2222" unicode="À"/><glyph d="M946 1552l-59 197l586 180l61 -196zM1749 -51l-139 256h-793l-139 -256h-350l886 1620l885 -1620h-350zM985 512h457l-228 418z" glyph-name="Aacute" horiz-adv-x="2222" unicode="Á"/><glyph d="M1538 1749l-59 -197l-265 82l-264 -82l-59 197l323 98zM1751 -51l-141 256h-791l-139 -256h-350l884 1620l885 -1620h-348zM987 512h455l-228 418z" glyph-name="Acircumflex" horiz-adv-x="2222" unicode="Â"/><glyph d="M1440 1602q-143 -43 -273 26q-57 31 -118 10q-23 -4 -52 -26l-39 -33l-129 160l39 30q51 43 121 66q143 43 273 -27q57 -31 118 -10q23 4 52 27l38 33l129 -160l-38 -31q-51 -42 -121 -65zM1751 -51l-141 256h-791l-139 -256h-350l884 1620l885 -1620h-348zM987 512h455 l-228 418z" glyph-name="Atilde" horiz-adv-x="2222" unicode="Ã"/><glyph d="M1061 1740.5q0 -63.5 -46 -108.5t-109.5 -45t-108.5 45t-45 108.5t45 108.5t108.5 45t109.5 -45t46 -108.5zM1675 1740.5q0 -63.5 -46 -108.5t-109.5 -45t-108.5 45t-45 108.5t45 108.5t108.5 45t109.5 -45t46 -108.5zM1749 -51l-141 256h-791l-139 -256h-350l884 1620 l887 -1620h-350zM985 512h455l-228 418z" glyph-name="Adieresis" horiz-adv-x="2222" unicode="Ä"/><glyph d="M1415 1792q0 -86 -59.5 -145.5t-144.5 -59.5t-144 59.5t-59 145.5t59 145.5t144 59.5t144.5 -59.5t59.5 -145.5zM1747 -51l-139 256h-793l-139 -256h-350l884 1622l887 -1622h-350zM983 512h457l-230 418z" glyph-name="Aring" horiz-adv-x="2222" unicode="Å"/><glyph d="M2433 1178h-819v-461h614v-307h-614v-154h819v-307h-1126v205h-519l-110 -205h-350l837 1536h1268v-307zM1307 461v641l-351 -641h351z" glyph-name="AE" horiz-adv-x="2760" unicode="Æ"/><glyph d="M1239 -256h-256v154h51v57q-283 39 -474 255t-191 520t225 529.5t543 225.5q184 0 344.5 -82t267.5 -223l31 -41l-244 -187l-31 41q-137 184 -368 185q-190 0 -325.5 -135.5t-135.5 -326t135 -325.5t326 -135q231 0 368 184l31 41l244 -186l-31 -41q-193 -256 -510 -299 v-211z" glyph-name="Ccedilla" horiz-adv-x="1923" unicode="Ç"/><glyph d="M1440 1749l-60 -197l-587 181l59 196zM553 -51v1536h1126v-307h-819v-461h615v-307h-615v-154h819v-307h-1126z" glyph-name="Egrave" horiz-adv-x="2007" unicode="È"/><glyph d="M852 1552l-59 197l587 180l60 -196zM553 1485h1126v-307h-819v-461h615v-307h-615v-154h819v-307h-1126v1536z" glyph-name="Eacute" horiz-adv-x="2007" unicode="É"/><glyph d="M1440 1749l-60 -197l-264 82l-264 -82l-59 197l323 98zM553 1485h1126v-307h-819v-461h615v-307h-615v-154h819v-307h-1126v1536z" glyph-name="Ecircumflex" horiz-adv-x="2007" unicode="Ê"/><glyph d="M963 1740.5q0 -63.5 -45.5 -108.5t-109 -45t-108.5 45t-45 108.5t45 108.5t108.5 45t109 -45t45.5 -108.5zM1577 1740.5q0 -63.5 -45 -108.5t-108.5 -45t-108.5 45t-45 108.5t45 108.5t108.5 45t108.5 -45t45 -108.5zM553 -51v1536h1126v-307h-819v-461h615v-307h-615 v-154h819v-307h-1126z" glyph-name="Edieresis" horiz-adv-x="2007" unicode="Ë"/><glyph d="M1030 1749l-59 -197l-588 181l59 196zM860 1485v-1536h-307v1536h307z" glyph-name="Igrave" unicode="Ì"/><glyph d="M442 1552l-59 197l588 180l59 -196zM860 -51h-307v1536h307v-1536z" glyph-name="Iacute" unicode="Í"/><glyph d="M1030 1749l-61 -197l-262 82l-265 -82l-61 197l326 98zM860 -51h-307v1536h307v-1536z" glyph-name="Icircumflex" unicode="Î"/><glyph d="M553 1740.5q0 -63.5 -45 -108.5t-108.5 -45t-108.5 45t-45 108.5t45 108.5t107.5 45t108.5 -45t46 -108.5zM1167 1740.5q0 -63.5 -45 -108.5t-108.5 -45t-108.5 45t-45 108.5t45 108.5t108.5 45t108.5 -45t45 -108.5zM860 1485v-1536h-307v1536h307z" glyph-name="Idieresis" unicode="Ï"/><glyph d="M1219 1485q317 0 542.5 -225.5t225.5 -543t-225.5 -542.5t-542.5 -225h-564v409h-204v308h204v819h564zM1219 256q190 0 325 135t135 325.5t-135 326t-325 135.5h-256v-512h204v-308h-204v-102h256z" glyph-name="Eth" horiz-adv-x="2150" unicode="Ð"/><glyph d="M1444 1602q-143 -43 -273 26q-57 31 -118 10q-23 -4 -52 -26l-38 -33l-129 160l38 33q59 45 121 63q143 43 273 -27q85 -46 170 17l39 33l129 -160l-39 -31q-51 -42 -121 -65zM553 1485h82l942 -897v897h307v-1536h-84l-940 897v-897h-307v1536z" glyph-name="Ntilde" horiz-adv-x="2232" unicode="Ñ"/><glyph d="M1440 1749l-60 -197l-587 181l59 196zM1884 716.5q0 -317.5 -225 -542.5t-542.5 -225t-543 225t-225.5 542.5t225.5 543t543 225.5t542.5 -225.5t225 -543zM1116.5 1178q-190.5 0 -326 -135.5t-135.5 -326t135.5 -325.5t326 -135t325.5 135t135 325.5t-135 326 t-325.5 135.5z" glyph-name="Ograve" horiz-adv-x="2027" unicode="Ò"/><glyph d="M854 1552l-61 197l587 180l60 -196zM1884 716.5q0 -317.5 -225 -542.5t-542.5 -225t-543 225t-225.5 542.5t225.5 543t543 225.5t542.5 -225.5t225 -543zM1118 1178q-192 0 -327.5 -135.5t-135.5 -326t135.5 -325.5t327.5 -135t325.5 135t133.5 325.5t-133.5 326 t-325.5 135.5z" glyph-name="Oacute" horiz-adv-x="2027" unicode="Ó"/><glyph d="M1440 1749l-60 -197l-264 82l-264 -82l-59 197l323 98zM1884 716.5q0 -317.5 -225 -542.5t-542.5 -225t-543 225t-225.5 542.5t225.5 543t543 225.5t542.5 -225.5t225 -543zM1116.5 1178q-190.5 0 -326 -135.5t-135.5 -326t135.5 -325.5t326 -135t325.5 135t135 325.5 t-135 326t-325.5 135.5z" glyph-name="Ocircumflex" horiz-adv-x="2027" unicode="Ô"/><glyph d="M1339 1602q-141 -43 -272 26q-55 31 -117 10q-27 -6 -51 -26l-39 -33l-131 160l39 33q59 47 123 63q141 43 272 -27q55 -31 117 -10q33 10 53 27l37 33l131 -160l-39 -31q-51 -42 -123 -65zM1884 716.5q0 -317.5 -225 -542.5t-543 -225t-543 225t-225 542.5t224.5 543 t542.5 225.5t543.5 -225.5t225.5 -543zM1114 1178q-192 0 -325.5 -135.5t-133.5 -326t134.5 -325.5t325.5 -135t326.5 135t135.5 325.5t-135.5 326t-327.5 135.5z" glyph-name="Otilde" horiz-adv-x="2027" unicode="Õ"/><glyph d="M963 1740.5q0 -63.5 -45.5 -108.5t-109 -45t-108.5 45t-45 108.5t45 108.5t108.5 45t109 -45t45.5 -108.5zM1577 1740.5q0 -63.5 -45 -108.5t-108.5 -45t-108.5 45t-45 108.5t45 108.5t108.5 45t108.5 -45t45 -108.5zM1884 716.5q0 -317.5 -225 -542.5t-542.5 -225 t-543 225t-225.5 542.5t225.5 543t543 225.5t542.5 -225.5t225 -543zM1114 1178q-192 0 -325.5 -135.5t-133.5 -326t134.5 -325.5t325.5 -135t326.5 135t135.5 325.5t-135.5 326t-327.5 135.5z" glyph-name="Odieresis" horiz-adv-x="2027" unicode="Ö"/><glyph d="M1249 1223l219 -217l-290 -289l290 -289l-219 -217l-288 289l-289 -289l-217 217l288 289l-288 289l217 217l289 -289z" glyph-name="multiply" horiz-adv-x="1673" unicode="×"/><glyph d="M1933 717q0 -317 -225 -542.5t-543 -225.5q-231 0 -424 127l-155 -156l-217 217l155 156q-127 193 -127 424q0 317 225.5 542.5t542.5 225.5q231 0 424 -127l156 155l217 -217l-156 -155q127 -193 127 -424zM705 717q0 -104 45 -199l614 615q-94 45 -199 45 q-190 0 -325 -135.5t-135 -325.5zM1626 717q0 104 -45 198l-614 -614q94 -45 198 -45q190 0 325.5 135.5t135.5 325.5z" glyph-name="Oslash" horiz-adv-x="2125" unicode="Ø"/><glyph d="M1501 1749l-59 -197l-588 181l59 196zM1843 1485v-871q0 -274 -195.5 -469.5t-470 -195.5t-470 195.5t-195.5 469.5v871h307v-871q0 -150 104.5 -254t254 -104t254 104.5t104.5 253.5v871h307z" glyph-name="Ugrave" horiz-adv-x="2150" unicode="Ù"/><glyph d="M913 1552l-59 197l588 180l59 -196zM1843 614q0 -274 -195.5 -469.5t-470 -195.5t-470 195.5t-195.5 469.5v871h307v-871q0 -150 104.5 -254t254 -104t254 104.5t104.5 253.5v871h307v-871z" glyph-name="Uacute" horiz-adv-x="2150" unicode="Ú"/><glyph d="M1501 1749l-61 -197l-262 82l-265 -82l-59 197l324 98zM1843 614q0 -274 -195.5 -469.5t-470.5 -195.5t-470 195.5t-195 469.5v871h307v-871q0 -150 104.5 -254t252.5 -104t254 104.5t106 253.5v871h307v-871z" glyph-name="Ucircumflex" horiz-adv-x="2150" unicode="Û"/><glyph d="M1024 1740.5q0 -63.5 -45 -108.5t-108.5 -45t-108.5 45t-45 108.5t45 108.5t108.5 45t108.5 -45t45 -108.5zM1638 1740.5q0 -63.5 -45 -108.5t-108.5 -45t-108.5 45t-45 108.5t45 108.5t108.5 45t108.5 -45t45 -108.5zM1843 1485v-871q0 -274 -194.5 -469.5 t-469.5 -195.5t-471 195.5t-196 469.5v871h307v-871q0 -150 105.5 -254t254.5 -104t253 104.5t104 253.5v871h307z" glyph-name="Udieresis" horiz-adv-x="2150" unicode="Ü"/><glyph d="M754 1552l-62 197l588 180l59 -196zM1169 -51h-307v551l-616 985h362l408 -651l409 651h363l-619 -985v-551z" glyph-name="Yacute" horiz-adv-x="1828" unicode="Ý"/><glyph d="M1116 1280q233 0 398 -165t165 -398.5t-164.5 -398t-398.5 -164.5h-256v-205h-307v1536h307v-205h256zM1116 461q106 0 181 74.5t75 181t-74.5 181.5t-181.5 75h-256v-512h256z" glyph-name="Thorn" horiz-adv-x="1904" unicode="Þ"/><glyph d="M553 -51v1075q0 190 135 325.5t325.5 135.5t326 -135.5t135.5 -325.5t-136 -326q-45 -45 -45 -108.5t45 -108.5q135 -135 136 -325v-207h-308v207q0 63 -45 108q-135 135 -135 325.5t135 325.5q45 45 45 108.5t-45 109t-108.5 45.5t-108.5 -45.5t-45 -108.5v-1075h-307z " glyph-name="germandbls" horiz-adv-x="1822" unicode="ß"/><glyph d="M1534 1749l-61 -197l-588 181l61 196zM1749 -51l-139 256h-793l-139 -256h-350l886 1620l885 -1620h-350zM985 512h457l-228 418z" glyph-name="agrave" horiz-adv-x="2222" unicode="à"/><glyph d="M946 1552l-59 197l586 180l61 -196zM1749 -51l-139 256h-793l-139 -256h-350l886 1620l885 -1620h-350zM985 512h457l-228 418z" glyph-name="aacute" horiz-adv-x="2222" unicode="á"/><glyph d="M1538 1749l-59 -197l-265 82l-264 -82l-59 197l323 98zM1751 -51l-141 256h-791l-139 -256h-350l884 1620l885 -1620h-348zM987 512h455l-228 418z" glyph-name="acircumflex" horiz-adv-x="2222" unicode="â"/><glyph d="M1440 1602q-143 -43 -273 26q-57 31 -118 10q-23 -4 -52 -26l-39 -33l-129 160l39 30q51 43 121 66q143 43 273 -27q57 -31 118 -10q23 4 52 27l38 33l129 -160l-38 -31q-51 -42 -121 -65zM1751 -51l-141 256h-791l-139 -256h-350l884 1620l885 -1620h-348zM987 512h455 l-228 418z" glyph-name="atilde" horiz-adv-x="2222" unicode="ã"/><glyph d="M1061 1740.5q0 -63.5 -46 -108.5t-109.5 -45t-108.5 45t-45 108.5t45 108.5t108.5 45t109.5 -45t46 -108.5zM1675 1740.5q0 -63.5 -46 -108.5t-109.5 -45t-108.5 45t-45 108.5t45 108.5t108.5 45t109.5 -45t46 -108.5zM1749 -51l-141 256h-791l-139 -256h-350l884 1620 l887 -1620h-350zM985 512h455l-228 418z" glyph-name="adieresis" horiz-adv-x="2222" unicode="ä"/><glyph d="M1415 1792q0 -86 -59.5 -145.5t-144.5 -59.5t-144 59.5t-59 145.5t59 145.5t144 59.5t144.5 -59.5t59.5 -145.5zM1747 -51l-139 256h-793l-139 -256h-350l884 1622l887 -1622h-350zM983 512h457l-230 418z" glyph-name="aring" horiz-adv-x="2222" unicode="å"/><glyph d="M2433 1178h-819v-461h614v-307h-614v-154h819v-307h-1126v205h-519l-110 -205h-350l837 1536h1268v-307zM1307 461v641l-351 -641h351z" glyph-name="ae" horiz-adv-x="2760" unicode="æ"/><glyph d="M1239 -256h-256v154h51v57q-283 39 -474 255t-191 520t225 529.5t543 225.5q184 0 344.5 -82t267.5 -223l31 -41l-244 -187l-31 41q-137 184 -368 185q-190 0 -325.5 -135.5t-135.5 -326t135 -325.5t326 -135q231 0 368 184l31 41l244 -186l-31 -41q-193 -256 -510 -299 v-211z" glyph-name="ccedilla" horiz-adv-x="1923" unicode="ç"/><glyph d="M1440 1749l-60 -197l-587 181l59 196zM553 -51v1536h1126v-307h-819v-461h615v-307h-615v-154h819v-307h-1126z" glyph-name="egrave" horiz-adv-x="2007" unicode="è"/><glyph d="M852 1552l-59 197l587 180l60 -196zM553 1485h1126v-307h-819v-461h615v-307h-615v-154h819v-307h-1126v1536z" glyph-name="eacute" horiz-adv-x="2007" unicode="é"/><glyph d="M1440 1749l-60 -197l-264 82l-264 -82l-59 197l323 98zM553 1485h1126v-307h-819v-461h615v-307h-615v-154h819v-307h-1126v1536z" glyph-name="ecircumflex" horiz-adv-x="2007" unicode="ê"/><glyph d="M963 1740.5q0 -63.5 -45.5 -108.5t-109 -45t-108.5 45t-45 108.5t45 108.5t108.5 45t109 -45t45.5 -108.5zM1577 1740.5q0 -63.5 -45 -108.5t-108.5 -45t-108.5 45t-45 108.5t45 108.5t108.5 45t108.5 -45t45 -108.5zM553 -51v1536h1126v-307h-819v-461h615v-307h-615 v-154h819v-307h-1126z" glyph-name="edieresis" horiz-adv-x="2007" unicode="ë"/><glyph d="M1030 1749l-59 -197l-588 181l59 196zM860 1485v-1536h-307v1536h307z" glyph-name="igrave" horiz-adv-x="1157" unicode="ì"/><glyph d="M442 1552l-59 197l588 180l59 -196zM860 -51h-307v1536h307v-1536z" glyph-name="iacute" unicode="í"/><glyph d="M1030 1749l-61 -197l-262 82l-265 -82l-61 197l326 98zM860 -51h-307v1536h307v-1536z" glyph-name="icircumflex" unicode="î"/><glyph d="M553 1740.5q0 -63.5 -45 -108.5t-108.5 -45t-108.5 45t-45 108.5t45 108.5t107.5 45t108.5 -45t46 -108.5zM1167 1740.5q0 -63.5 -45 -108.5t-108.5 -45t-108.5 45t-45 108.5t45 108.5t108.5 45t108.5 -45t45 -108.5zM860 1485v-1536h-307v1536h307z" glyph-name="idieresis" unicode="ï"/><glyph d="M1219 1485q317 0 542.5 -225.5t225.5 -543t-225.5 -542.5t-542.5 -225h-564v409h-204v308h204v819h564zM1219 256q190 0 325 135t135 325.5t-135 326t-325 135.5h-256v-512h204v-308h-204v-102h256z" glyph-name="eth" horiz-adv-x="2150" unicode="ð"/><glyph d="M1444 1602q-143 -43 -273 26q-57 31 -118 10q-23 -4 -52 -26l-38 -33l-129 160l38 33q59 45 121 63q143 43 273 -27q85 -46 170 17l39 33l129 -160l-39 -31q-51 -42 -121 -65zM553 1485h82l942 -897v897h307v-1536h-84l-940 897v-897h-307v1536z" glyph-name="ntilde" horiz-adv-x="2232" unicode="ñ"/><glyph d="M1440 1749l-60 -197l-587 181l59 196zM1884 716.5q0 -317.5 -225 -542.5t-542.5 -225t-543 225t-225.5 542.5t225.5 543t543 225.5t542.5 -225.5t225 -543zM1116.5 1178q-190.5 0 -326 -135.5t-135.5 -326t135.5 -325.5t326 -135t325.5 135t135 325.5t-135 326 t-325.5 135.5z" glyph-name="ograve" horiz-adv-x="2027" unicode="ò"/><glyph d="M854 1552l-61 197l587 180l60 -196zM1884 716.5q0 -317.5 -225 -542.5t-542.5 -225t-543 225t-225.5 542.5t225.5 543t543 225.5t542.5 -225.5t225 -543zM1118 1178q-192 0 -327.5 -135.5t-135.5 -326t135.5 -325.5t327.5 -135t325.5 135t133.5 325.5t-133.5 326 t-325.5 135.5z" glyph-name="oacute" horiz-adv-x="2027" unicode="ó"/><glyph d="M1440 1749l-60 -197l-264 82l-264 -82l-59 197l323 98zM1884 716.5q0 -317.5 -225 -542.5t-542.5 -225t-543 225t-225.5 542.5t225.5 543t543 225.5t542.5 -225.5t225 -543zM1116.5 1178q-190.5 0 -326 -135.5t-135.5 -326t135.5 -325.5t326 -135t325.5 135t135 325.5 t-135 326t-325.5 135.5z" glyph-name="ocircumflex" horiz-adv-x="2027" unicode="ô"/><glyph d="M1339 1602q-141 -43 -272 26q-55 31 -117 10q-27 -6 -51 -26l-39 -33l-131 160l39 33q59 47 123 63q141 43 272 -27q55 -31 117 -10q33 10 53 27l37 33l131 -160l-39 -31q-51 -42 -123 -65zM1884 716.5q0 -317.5 -225 -542.5t-543 -225t-543 225t-225 542.5t224.5 543 t542.5 225.5t543.5 -225.5t225.5 -543zM1114 1178q-192 0 -325.5 -135.5t-133.5 -326t134.5 -325.5t325.5 -135t326.5 135t135.5 325.5t-135.5 326t-327.5 135.5z" glyph-name="otilde" horiz-adv-x="2027" unicode="õ"/><glyph d="M963 1740.5q0 -63.5 -45.5 -108.5t-109 -45t-108.5 45t-45 108.5t45 108.5t108.5 45t109 -45t45.5 -108.5zM1577 1740.5q0 -63.5 -45 -108.5t-108.5 -45t-108.5 45t-45 108.5t45 108.5t108.5 45t108.5 -45t45 -108.5zM1884 716.5q0 -317.5 -225 -542.5t-542.5 -225 t-543 225t-225.5 542.5t225.5 543t543 225.5t542.5 -225.5t225 -543zM1114 1178q-192 0 -325.5 -135.5t-133.5 -326t134.5 -325.5t325.5 -135t326.5 135t135.5 325.5t-135.5 326t-327.5 135.5z" glyph-name="odieresis" horiz-adv-x="2027" unicode="ö"/><glyph d="M1178 1126q0 -86 -59.5 -145t-145.5 -59t-145.5 59t-59.5 145t59.5 145.5t145.5 59.5t145.5 -59.5t59.5 -145.5zM1536 870v-307h-1126v307h1126zM1178 307q0 -86 -59.5 -145.5t-145.5 -59.5t-145.5 59.5t-59.5 145.5t59.5 145.5t145.5 59.5t145.5 -59.5t59.5 -145.5z" glyph-name="divide" horiz-adv-x="1740" unicode="÷"/><glyph d="M1933 717q0 -317 -225 -542.5t-543 -225.5q-231 0 -424 127l-155 -156l-217 217l155 156q-127 193 -127 424q0 317 225.5 542.5t542.5 225.5q231 0 424 -127l156 155l217 -217l-156 -155q127 -193 127 -424zM705 717q0 -104 45 -199l614 615q-94 45 -199 45 q-190 0 -325 -135.5t-135 -325.5zM1626 717q0 104 -45 198l-614 -614q94 -45 198 -45q190 0 325.5 135.5t135.5 325.5z" glyph-name="oslash" horiz-adv-x="2125" unicode="ø"/><glyph d="M1501 1749l-59 -197l-588 181l59 196zM1843 1485v-871q0 -274 -195.5 -469.5t-470 -195.5t-470 195.5t-195.5 469.5v871h307v-871q0 -150 104.5 -254t254 -104t254 104.5t104.5 253.5v871h307z" glyph-name="ugrave" horiz-adv-x="2150" unicode="ù"/><glyph d="M913 1552l-59 197l588 180l59 -196zM1843 614q0 -274 -195.5 -469.5t-470 -195.5t-470 195.5t-195.5 469.5v871h307v-871q0 -150 104.5 -254t254 -104t254 104.5t104.5 253.5v871h307v-871z" glyph-name="uacute" horiz-adv-x="2150" unicode="ú"/><glyph d="M1501 1749l-61 -197l-262 82l-265 -82l-59 197l324 98zM1843 614q0 -274 -195.5 -469.5t-470.5 -195.5t-470 195.5t-195 469.5v871h307v-871q0 -150 104.5 -254t252.5 -104t254 104.5t106 253.5v871h307v-871z" glyph-name="ucircumflex" horiz-adv-x="2150" unicode="û"/><glyph d="M1024 1740.5q0 -63.5 -45 -108.5t-108.5 -45t-108.5 45t-45 108.5t45 108.5t108.5 45t108.5 -45t45 -108.5zM1638 1740.5q0 -63.5 -45 -108.5t-108.5 -45t-108.5 45t-45 108.5t45 108.5t108.5 45t108.5 -45t45 -108.5zM1843 1485v-871q0 -274 -194.5 -469.5 t-469.5 -195.5t-471 195.5t-196 469.5v871h307v-871q0 -150 105.5 -254t254.5 -104t253 104.5t104 253.5v871h307z" glyph-name="udieresis" horiz-adv-x="2150" unicode="ü"/><glyph d="M754 1552l-62 197l588 180l59 -196zM1169 -51h-307v551l-616 985h362l408 -651l409 651h363l-619 -985v-551z" glyph-name="yacute" horiz-adv-x="1828" unicode="ý"/><glyph d="M1116 1280q233 0 398 -165t165 -398.5t-164.5 -398t-398.5 -164.5h-256v-205h-307v1536h307v-205h256zM1116 461q106 0 181 74.5t75 181t-74.5 181.5t-181.5 75h-256v-512h256z" glyph-name="thorn" horiz-adv-x="1904" unicode="þ"/><glyph d="M864 1740.5q0 -63.5 -46 -108.5t-109.5 -45t-108.5 45t-45 108.5t45 108.5t108.5 45t109.5 -45t46 -108.5zM1479 1740.5q0 -63.5 -46 -108.5t-109.5 -45t-109 45t-45.5 108.5t45.5 108.5t109 45t109.5 -45t46 -108.5zM1169 -51h-307v551l-616 985h362l408 -651l409 651 h363l-619 -985v-551z" glyph-name="ydieresis" horiz-adv-x="1828" unicode="ÿ"/><glyph d="M860 1485v-1536h-307v1536h307z" glyph-name="dotlessi" unicode="ı"/><glyph d="M1024 256h819v-307h-1126v563l-205 -61v319l205 61v654h307v-563l205 61v-319l-205 -62v-346z" glyph-name="Lslash" horiz-adv-x="2048" unicode="Ł"/><glyph d="M1024 256h819v-307h-1126v563l-205 -61v319l205 61v654h307v-563l205 61v-319l-205 -62v-346z" glyph-name="lslash" horiz-adv-x="2048" unicode="ł"/><glyph d="M2345 1178h-819v-461h614v-307h-614v-154h819v-307h-1229q-317 0 -542.5 225t-225.5 542.5t225.5 543t542.5 225.5h1229v-307zM1116 256h103v922h-103q-190 0 -325.5 -135.5t-135.5 -326t135.5 -325.5t325.5 -135z" glyph-name="OE" horiz-adv-x="2672" unicode="Œ"/><glyph d="M2345 1178h-819v-461h614v-307h-614v-154h819v-307h-1229q-317 0 -542.5 225t-225.5 542.5t225.5 543t542.5 225.5h1229v-307zM1116 256h103v922h-103q-190 0 -325.5 -135.5t-135.5 -326t135.5 -325.5t325.5 -135z" glyph-name="oe" horiz-adv-x="2672" unicode="œ"/><glyph d="M1176 1847l59 -194l-324 -101l-323 101l59 194l264 -80zM911 870q190 0 325.5 -135t135.5 -325.5t-135 -325.5t-313 -135t-302 100.5t-159 255.5l295 105q0 -63 45 -108.5t108.5 -45.5t108.5 45t45 108.5t-45 108.5t-109 45q-190 0 -325 135.5t-135 325.5t135 325.5 t312 135.5t302 -100.5t160 -256.5l-295 -104q0 63 -45 108.5t-108.5 45.5t-108.5 -45.5t-45 -108.5t45 -108.5t108 -45.5z" glyph-name="Scaron" horiz-adv-x="1597" unicode="Š"/><glyph d="M1176 1847l59 -194l-324 -101l-323 101l59 194l264 -80zM911 870q190 0 325.5 -135t135.5 -325.5t-135 -325.5t-313 -135t-302 100.5t-159 255.5l295 105q0 -63 45 -108.5t108.5 -45.5t108.5 45t45 108.5t-45 108.5t-109 45q-190 0 -325 135.5t-135 325.5t135 325.5 t312 135.5t302 -100.5t160 -256.5l-295 -104q0 63 -45 108.5t-108.5 45.5t-108.5 -45.5t-45 -108.5t45 -108.5t108 -45.5z" glyph-name="scaron" horiz-adv-x="1597" unicode="š"/><glyph d="M864 1740.5q0 -63.5 -46 -108.5t-109.5 -45t-108.5 45t-45 108.5t45 108.5t108.5 45t109.5 -45t46 -108.5zM1479 1740.5q0 -63.5 -46 -108.5t-109.5 -45t-109 45t-45.5 108.5t45.5 108.5t109 45t109.5 -45t46 -108.5zM1169 -51h-307v551l-616 985h362l408 -651l409 651 h363l-619 -985v-551z" glyph-name="Ydieresis" horiz-adv-x="1828" unicode="Ÿ"/><glyph d="M1266 1847l61 -194l-323 -101l-324 101l59 194l265 -80zM455 1178v307h1130l-676 -1229h641v-307h-1161l676 1229h-610z" glyph-name="Zcaron" horiz-adv-x="1769" unicode="Ž"/><glyph d="M1266 1847l61 -194l-323 -101l-324 101l59 194l265 -80zM455 1178v307h1130l-676 -1229h641v-307h-1161l676 1229h-610z" glyph-name="zcaron" horiz-adv-x="1769" unicode="ž"/><glyph d="M1112 1180l-29 -207h267l-41 -307h-267l-63 -457q-20 -147 -138.5 -236t-256.5 -71t-225 114.5t-93 223.5l299 61l13 -53q4 -33 43 -41q20 -2 36.5 10t20.5 33l57 416h-205l43 307h203l35 250q20 145 139 235t256 71t224.5 -114.5t93.5 -222.5l-299 -62l-11 52 q-6 37 -43 41q-23 4 -40 -9.5t-19 -33.5z" glyph-name="florin" horiz-adv-x="1585" unicode="ƒ"/><glyph d="M1057 1749l-60 -197l-264 82l-264 -82l-59 197l323 98z" glyph-name="circumflex" horiz-adv-x="1261" unicode="ˆ"/><glyph d="M995 1847l62 -194l-324 -101l-323 101l59 194l264 -80z" glyph-name="caron" horiz-adv-x="1261" unicode="ˇ"/><glyph d="M717 1740.5q0 -63.5 -45 -108.5t-108.5 -45t-108.5 45t-45 108.5t45 108.5t108.5 45t108.5 -45t45 -108.5z" glyph-name="dotaccent" horiz-adv-x="921" unicode="˙"/><glyph d="M821 1792q0 -86 -59.5 -145.5t-145.5 -59.5t-145 59.5t-59 145.5t59 145.5t145 59.5t145.5 -59.5t59.5 -145.5z" glyph-name="ring" horiz-adv-x="1028" unicode="˚"/><glyph d="M1020 1602q-143 -43 -275 26q-53 31 -116 10q-23 -4 -51 -26l-39 -33l-129 160l39 30q51 43 120 66q143 43 273 -27q57 -31 119 -10q23 4 51 27l39 33l129 -160l-39 -31q-51 -42 -121 -65z" glyph-name="tilde" horiz-adv-x="1384" unicode="˜"/><glyph d="M1536 870v-307h-1126v307h1126z" glyph-name="endash" horiz-adv-x="1740" unicode="–"/><glyph d="M2560 870v-307h-2150v307h2150z" glyph-name="emdash" horiz-adv-x="2764" unicode="—"/><glyph d="M717 1485v-512h-307v268l120 244h187z" glyph-name="quoteleft" horiz-adv-x="921" unicode="‘"/><glyph d="M410 973v512h307v-268l-123 -244h-184z" glyph-name="quoteright" horiz-adv-x="921" unicode="’"/><glyph d="M410 -256v512h307v-268l-123 -244h-184z" glyph-name="quotesinglbase" horiz-adv-x="921" unicode="‚"/><glyph d="M1126 1485v-512h-307v268l121 244h186zM717 1485v-512h-307v268l120 244h187z" glyph-name="quotedblleft" horiz-adv-x="1331" unicode="“"/><glyph d="M819 973v512h307v-268l-120 -244h-187zM410 973v512h307v-268l-121 -244h-186z" glyph-name="quotedblright" horiz-adv-x="1331" unicode="”"/><glyph d="M819 -256v512h307v-268l-120 -244h-187zM410 -256v512h307v-268l-121 -244h-186z" glyph-name="quotedblbase" horiz-adv-x="1331" unicode="„"/><glyph d="M1331 1178v-308h-307v-921h-307v921h-307v308h307v307h307v-307h307z" glyph-name="dagger" horiz-adv-x="1536" unicode="†"/><glyph d="M1331 870h-307v-307h307v-307h-307v-307h-307v307h-307v307h307v307h-307v308h307v307h307v-307h307v-308z" glyph-name="daggerdbl" horiz-adv-x="1536" unicode="‡"/><glyph d="M665.5 973q106.5 0 181.5 -75t75 -181.5t-75 -181t-181.5 -74.5t-181 74.5t-74.5 181t74.5 181.5t181 75z" glyph-name="bullet" horiz-adv-x="1126" unicode="•"/><glyph d="M717 256v-307h-307v307h307zM1280 256v-307h-307v307h307zM1843 256v-307h-307v307h307z" glyph-name="ellipsis" horiz-adv-x="2048" unicode="…"/><glyph d="M862 1178q0 43 -30.5 72.5t-72.5 29.5t-72 -29.5t-30 -72.5t30 -73t72 -30t72.5 30t30.5 73zM760 1485q127 0 217 -90t90 -217t-90 -217.5t-217 -90.5t-217 90.5t-90 217.5t90 217t217 90zM1806 1380l-1122 -1480l-205 155l1123 1481zM2394 256q0 43 -29.5 72.5 t-71.5 29.5t-73 -29.5t-31 -72.5t31 -72.5t73 -29.5t71.5 29.5t29.5 72.5zM2292 563q127 0 217 -90t90 -217t-90 -217t-217 -90t-217 90t-90 217t90 217t217 90zM1661 256q0 43 -29.5 72.5t-71.5 29.5t-73 -29.5t-31 -72.5t31 -72.5t73 -29.5t71.5 29.5t29.5 72.5zM1559 563 q127 0 217 -90t90 -217t-90 -217t-217 -90t-217.5 90t-90.5 217t90.5 217t217.5 90z" glyph-name="perthousand" horiz-adv-x="2844" unicode="‰"/><glyph d="M328 717l344 491l252 -176l-222 -315l222 -316l-252 -176z" glyph-name="guilsinglleft" horiz-adv-x="1046" unicode="‹"/><glyph d="M582 1208l342 -491l-342 -492l-252 176l219 316l-219 315z" glyph-name="guilsinglright" horiz-adv-x="1046" unicode="›"/><glyph d="M1591 1380l-1122 -1480l-203 155l1123 1481z" glyph-name="fraction" horiz-adv-x="1652" unicode="⁄"/><glyph d="M1325 -51q-201 0 -383 111.5t-280 297.5h-293l75 308h131q-2 16 -2 51t2 51h-169l75 307h181q98 186 280 298t382 112t361.5 -82t268.5 -223l31 -41l-244 -187l-31 41q-137 184 -369 185q-164 0 -288 -103h252l-78 -307h-344q-2 -16 -2 -51t2 -51h385l-78 -308h-137 q125 -102 288 -102q232 0 369 184l31 41l244 -186l-31 -41q-106 -141 -267 -223t-362 -82z" glyph-name="Euro" horiz-adv-x="2127" unicode="€"/><glyph d="M389 168l61 -2q61 -2 120 18t117 94t92 175.5t60.5 223.5t37 239.5t17.5 225t5 179.5t-1 92t1 23l281 53l356 -868q117 825 250 1036l262 -154q-92 -195 -167 -633t-109 -915l-277 -41l-334 811q-139 -868 -706 -868l-66 2v309zM2695 389v-307h-629v307h629zM2818 856 q0 -176 -123 -299t-299 -123t-299 123t-123 299t123 299t299 123t299 -123t123 -299zM2396 971q-47 0 -81 -34t-34 -81t34 -81t81 -34t81 34t34 81t-34 81t-81 34z" glyph-name="afii61352" horiz-adv-x="3063" unicode="№"/><glyph d="M348 1300v185h600l64 -92l63 92h166v-514h-184v159l-45 -65l-45 65v-159h-185v329h-112v-329h-185v329h-137z" glyph-name="trademark" horiz-adv-x="1384" unicode="™"/><glyph d="M1536 870v-307h-1126v307h1126z" glyph-name="minus" horiz-adv-x="1740" unicode="−"/></font>
</defs>
</svg>
